<?xml version="1.0" encoding="utf-8"?>
<svg xmlns="http://www.w3.org/2000/svg" width="370" height="200" viewBox="0 0 370.54007 200.24631">
  <g id="b8fe217a-e9df-4a03-bad9-b8d71d02f692">
    <g id="fba27daa-505d-45af-a278-7a3c351149aa">
      <g>
        <path d="M336.96738,91.24368c-.1644,4.03681-.40338,8.39618-.38013,12.77832q-.04843,6.54721-.09866,13.46143-.04848,6.91113-.102,14.171-.01488,1.8028-.02921,3.62808c-.017,1.16989-.08365,2.29325-.20581,3.399a18.86646,18.86646,0,0,1-1.83627,6.232A18.28421,18.28421,0,0,1,330.25156,150.1l-1.31586,1.1018-1.35443.95813c-.43961.3237-1.08905.6619-1.62424.99326l-.74832.44162-.84616.43573c-4.52152,2.33429-9.41556,4.49939-14.36966,6.64441-9.94562,4.25336-20.39868,8.39306-31.23721,12.07614-2.71021.90707-5.44422,1.779-8.18985,2.55771-1.36545.39545-2.75019.71689-4.087,1.05081l-1.79407.35461-.45578.093-.55475.04624-1.10922.09405c-1.33706.17749-3.77035-1.03461-5.85663-2.67334a56.05588,56.05588,0,0,1-6.26315-5.762c-8.13287-8.5535-15.57184-18.64319-24.09482-28.17639-4.17767-4.64707-8.00757-9.67658-13.05435-14.43827a32.93555,32.93555,0,0,0-8.90649-6.03009,35.35911,35.35911,0,0,0-10.36713-2.7785c-1.7175-.25208-3.55266-.34076-5.23758-.44653l-2.44629-.06061-.61227-.015-.30644-.008-.40451.004-1.28069.03112a57.32516,57.32516,0,0,0-10.42184,1.02448,31.42457,31.42457,0,0,0-10.34476,3.90045,40.46209,40.46209,0,0,0-8.32254,6.9469c-2.38989,2.5228-4.559,5.09045-6.72687,7.60446q-3.27828,3.76771-6.5676,7.54559c-4.41781,5.12589-8.61393,10.37223-12.89056,15.48081-4.27664,5.06952-8.61478,10.188-13.38747,14.21432-2.36465,1.94773-4.9028,3.59916-6.94375,3.63746.019-.0051.02014-.0091-.0839-.01108l-.2398-.02637-.4802-.0462c-.33279-.04221-.612-.02637-.991-.10373l-2.26091-.44278c-1.5548-.40222-3.111-.75116-4.68992-1.24835-6.29859-1.86493-12.61927-4.09949-18.86712-6.45084q-9.37812-3.53979-18.59444-7.46445c-3.06509-1.30765-6.12-2.63794-9.11761-4.03033-1.52336-.68567-2.96335-1.3938-4.42121-2.09537-.72766-.34805-1.48109-.7594-2.21981-1.13467-.33619-.18225-.82064-.4079-1.035-.55335l-.97766-.58111a21.17421,21.17421,0,0,1-6.51543-5.80423,17.27874,17.27874,0,0,1-3.04724-7.91,89.79833,89.79833,0,0,1-.2931-9.548q-.0285-4.95561-.0584-9.88751-.07225-9.88152-.146-19.65964c-.17916-6.64026-.68772-12.964-.31891-19.17981a48.212,48.212,0,0,1,4.00337-17.642,38.84046,38.84046,0,0,1,4.59608-7.585,44.11412,44.11412,0,0,1,6.19031-6.336,60.94813,60.94813,0,0,1,15.24869-9.05389A111.59615,111.59615,0,0,1,80.66551,34.675q2.13876-.56763,4.26587-1.13074,2.1447-.49421,4.27634-.98505c2.84372-.65142,5.66107-1.33,8.49489-1.86041a479.8947,479.8947,0,0,1,64.4655-8.31854q7.5451-.49274,14.77813-.75311c4.83422-.18946,9.487-.2713,14.08422-.11487,9.17944.25091,17.88888.73816,26.05691,1.36352,16.34317,1.19593,30.515,3.07441,42.09876,5.03687,11.6073,1.89581,20.573,4.03223,26.663,5.46033,5.96436,1.58435,9.18738,2.43921,9.33649,2.47979.00708.0019.79565.24689,2.32324.72077,1.5452.44482,3.79388,1.22436,6.694,2.31146a81.69978,81.69978,0,0,1,10.24637,4.84839,49.852,49.852,0,0,1,11.84543,9.30835,38.63162,38.63162,0,0,1,8.85571,16.064c1.8374,6.5373,2.16284,14.02753,1.817,22.138ZM339.427,67.88333A42.96356,42.96356,0,0,0,329.3439,50.20426a53.92939,53.92939,0,0,0-12.95379-9.89661,85.57385,85.57385,0,0,0-10.84534-4.94385c-3.03223-1.08832-5.37476-1.85986-6.97406-2.29639-1.59-.46777-2.412-.70977-2.412-.70977l-.03119-.0083s-3.26605-.82966-9.39-2.38672c-6.224-1.3938-15.3309-3.45771-27.032-5.24073-5.847-.92858-12.34091-1.807-19.42413-2.63275-7.07983-.83319-14.75265-1.61981-22.96689-2.21954-8.21338-.62225-16.96563-1.10437-26.20941-1.35016-4.61537-.13519-9.41754-.101-14.25372.03821q-7.27812.18924-14.87482.61322a483.40028,483.40028,0,0,0-65.02931,7.75445c-2.867.50824-5.72682,1.16553-8.61052,1.798q-2.16342.47616-4.34042.955-2.16124.55059-4.337,1.10491A120.25507,120.25507,0,0,0,62.174,36.25412a65.19973,65.19973,0,0,0-16.46279,9.49494,48.54144,48.54144,0,0,0-6.95169,6.92871A43.516,43.516,0,0,0,33.47888,61.125a53.0721,53.0721,0,0,0-4.70126,19.33c-.47878,6.60785-.034,13.21393.04478,19.56976q-.05953,9.7371-.11792,19.58518-.03018,4.93143-.05839,9.88751l-.02976,4.97226a40.2471,40.2471,0,0,0,.25228,5.32034A23.15422,23.15422,0,0,0,32.81642,150.335a27.0733,27.0733,0,0,0,8.19185,7.54242l1.17015.71008c.4915.30274.771.4224,1.16785.64234.74524.39117,1.45616.78973,2.232,1.17554,1.54573.76989,3.10139,1.55535,4.62529,2.26318,3.06056,1.46521,6.14041,2.85,9.23527,4.214q9.28459,4.08279,18.75514,7.78879c6.33091,2.45224,12.68648,4.83871,19.30877,6.82071,1.63559.52157,3.36811.93,5.07232,1.37338l2.69829.54056c.44589.09127,1.01566.11706,1.5188.17263l.77841.06665.38918.03086a3.478,3.478,0,0,0,.57884.0014,12.51717,12.51717,0,0,0,3.32475-.62616,17.7912,17.7912,0,0,0,2.865-1.26993,31.47621,31.47621,0,0,0,4.65876-3.22552c5.54937-4.65677,9.9374-9.87647,14.34528-15.02448,4.36534-5.167,8.56857-10.36685,12.89961-15.34164q3.30974-3.76433,6.60784-7.51724c2.19034-2.51914,4.33108-5.01816,6.51516-7.302a33.5837,33.5837,0,0,1,6.88733-5.73983,24.26288,24.26288,0,0,1,8.08951-2.97357,50.33431,50.33431,0,0,1,9.13381-.83707l1.17213-.02408.21259-.00513.30049.00711.61311.01218,2.44659.05133c.82374.01273,1.50832.104,2.26769.14908.74327.05582,1.48535.0947,2.22551.22082a28.26407,28.26407,0,0,1,8.36047,2.17447,25.76554,25.76554,0,0,1,7.01636,4.74207c4.3302,4.0235,8.32251,9.1253,12.59488,13.8634,8.37073,9.27155,15.74023,19.23252,24.40741,28.2988a59.47548,59.47548,0,0,0,7.16034,6.41739,24.85041,24.85041,0,0,0,4.44415,2.69034,11.96141,11.96141,0,0,0,5.98709,1.19711l1.108-.108a8.22451,8.22451,0,0,0,1.18888-.17005l2.55737-.50744c1.52475-.39655,3.005-.76419,4.45294-1.203,2.89106-.86029,5.70276-1.7983,8.47278-2.76379,11.05-3.91833,21.513-8.22076,31.55356-12.66663,5.01877-2.24673,9.90369-4.48724,14.69342-7.04635L328,158.668l.93768-.56637c.57175-.36512,1.08707-.63044,1.70105-1.07322l1.81189-1.31387,1.639-1.4119a23.94237,23.94237,0,0,0,5.21747-6.893,24.4297,24.4297,0,0,0,2.283-8.11673c.13208-1.35327.18539-2.6915.18539-3.9668q-.01067-1.847-.02295-3.67172-.05315-7.25643-.10293-14.171-.05018-6.91151-.09781-13.46143c-.08386-4.347.08536-8.45922.19534-12.63208.231-8.2788-.19336-16.34-2.32019-23.50659Z" fill="#fff"/>
        <path d="M326.29465,53.04172a49.852,49.852,0,0,0-11.84543-9.30835A81.69978,81.69978,0,0,0,304.20285,38.885c-2.90015-1.0871-5.14883-1.86664-6.694-2.31146-1.52759-.47388-2.31616-.71887-2.32324-.72077-.14911-.04058-3.37213-.89544-9.33649-2.47979-6.09-1.4281-15.05566-3.56452-26.663-5.46033-11.5838-1.96246-25.75559-3.84094-42.09876-5.03687-8.168-.62536-16.87747-1.11261-26.05691-1.36352-4.59723-.15643-9.25-.07459-14.08422.11487q-7.22706.25716-14.77813.75311a479.8947,479.8947,0,0,0-64.4655,8.31854c-2.83382.5304-5.65117,1.209-8.49489,1.86041q-2.13148.49146-4.27634.98505-2.12683.56424-4.26587,1.13074a111.59615,111.59615,0,0,0-16.85536,5.47876,60.94813,60.94813,0,0,0-15.24869,9.05389,44.11412,44.11412,0,0,0-6.19031,6.336,38.84046,38.84046,0,0,0-4.59608,7.585,48.212,48.212,0,0,0-4.00337,17.642c-.36881,6.21582.13975,12.53955.31891,19.17981q.074,9.77434.146,19.65964.02978,4.93143.0584,9.88751a89.79833,89.79833,0,0,0,.2931,9.548,17.27874,17.27874,0,0,0,3.04724,7.91,21.17421,21.17421,0,0,0,6.51543,5.80423l.97766.58111c.21431.14545.69876.3711,1.035.55335.73872.37527,1.49215.78662,2.21981,1.13467,1.45786.70157,2.89785,1.4097,4.42121,2.09537,2.99762,1.39239,6.05252,2.72268,9.11761,4.03033q9.20043,3.91516,18.59444,7.46445c6.24785,2.35135,12.56853,4.58591,18.86712,6.45084,1.57889.49719,3.13512.84613,4.68992,1.24835l2.26091.44278c.379.07736.6582.06152.991.10373l.4802.0462.2398.02637c.104.002.10289.006.0839.01108,2.04095-.0383,4.5791-1.68973,6.94375-3.63746,4.77269-4.02633,9.11083-9.1448,13.38747-14.21432,4.27663-5.10858,8.47275-10.35492,12.89056-15.48081q3.288-3.77878,6.5676-7.54559c2.16791-2.514,4.337-5.08166,6.72687-7.60446a40.46209,40.46209,0,0,1,8.32254-6.9469,31.42457,31.42457,0,0,1,10.34476-3.90045,57.32516,57.32516,0,0,1,10.42184-1.02448l1.28069-.03112.40451-.004.30644.008.61227.015,2.44629.06061c1.68492.10577,3.52008.19445,5.23758.44653a35.35911,35.35911,0,0,1,10.36713,2.7785,32.93555,32.93555,0,0,1,8.90649,6.03009c5.04678,4.76169,8.87668,9.7912,13.05435,14.43827,8.523,9.5332,15.962,19.62289,24.09482,28.17639a56.05588,56.05588,0,0,0,6.26315,5.762c2.08628,1.63873,4.51957,2.85083,5.85663,2.67334l1.10922-.09405.55475-.04624.45578-.093,1.79407-.35461c1.33682-.33392,2.72156-.65536,4.087-1.05081,2.74563-.77869,5.47964-1.65064,8.18985-2.55771,10.83853-3.68308,21.29159-7.82278,31.23721-12.07614,4.9541-2.145,9.84814-4.31012,14.36966-6.64441l.84616-.43573.74832-.44162c.53519-.33136,1.18463-.66956,1.62424-.99326l1.35443-.95813,1.31586-1.1018a18.28421,18.28421,0,0,0,4.06372-5.18656,18.86646,18.86646,0,0,0,1.83627-6.232c.12216-1.10577.18881-2.22913.20581-3.399q.01492-1.82409.02921-3.62808.05315-7.25643.102-14.171.0498-6.91151.09866-13.46143c-.02325-4.38214.21573-8.74151.38013-12.77832.34582-8.11047.02038-15.6007-1.817-22.138a38.63162,38.63162,0,0,0-8.85571-16.064Z" fill="#444d6a"/>
        <path d="M357.03665,121.5571c-.00085,2.13165-.09067,4.23013-.13009,6.26034-.10575,4.0589-.26932,7.8483-.466,11.09623-.362,6.495-.87536,10.82522-.87536,10.82522s-.511-4.33023-.87308-10.82522c-.19754-3.24793-.36115-7.03733-.46683-11.09623-.0394-2.03021-.1293-4.12869-.1293-6.26034-.017-2.13052-.03427-4.29559-.0513-6.46069.017-2.1651.03546-4.33112.05246-6.46186.006-2.13165.09182-4.2279.131-6.25891.10882-4.05975.27124-7.84826.46716-11.09649.36167-6.4953.86991-10.82612.86991-10.82612s.51028,4.33082.87054,10.82612c.19672,3.24823.35971,7.03674.46774,11.09649.04053,2.031.125,4.12726.13092,6.25891.01841,2.13074.03571,4.29676.05356,6.46186-.017,2.1651-.03427,4.33017-.0513,6.46069ZM341.55182,104.022q.0481,6.54721.09781,13.46143.04976,6.91113.10293,14.171.01186,1.82583.02295,3.67172c0,1.2753-.05331,2.61353-.18539,3.9668a24.4297,24.4297,0,0,1-2.283,8.11673,23.94237,23.94237,0,0,1-5.21747,6.893l-1.639,1.4119-1.81189,1.31387c-.614.44278-1.1293.7081-1.70105,1.07322L328,158.668l-.89859.48157c-4.78973,2.55911-9.67465,4.79962-14.69342,7.04635-10.04056,4.44587-20.50357,8.7483-31.55356,12.66663-2.77.96549-5.58172,1.9035-8.47278,2.76379-1.44793.43882-2.92819.80646-4.45294,1.203l-2.55737.50744a8.22451,8.22451,0,0,1-1.18888.17005l-1.108.108a11.96141,11.96141,0,0,1-5.98709-1.19711,24.85041,24.85041,0,0,1-4.44415-2.69034,59.47548,59.47548,0,0,1-7.16034-6.41739c-8.66718-9.06628-16.03668-19.02725-24.40741-28.2988-4.27237-4.7381-8.26468-9.8399-12.59488-13.8634a25.76554,25.76554,0,0,0-7.01636-4.74207,28.26407,28.26407,0,0,0-8.36047-2.17447c-.74016-.12612-1.48224-.165-2.22551-.22082-.75937-.04508-1.444-.13635-2.26769-.14908l-2.44659-.05133-.61311-.01218-.30049-.00711-.21259.00513-1.17213.02408a50.33431,50.33431,0,0,0-9.13381.83707,24.26288,24.26288,0,0,0-8.08951,2.97357,33.5837,33.5837,0,0,0-6.88733,5.73983c-2.18408,2.28388-4.32482,4.7829-6.51516,7.302q-3.2991,3.75242-6.60784,7.51724c-4.331,4.97479-8.53427,10.17465-12.89961,15.34164-4.40788,5.148-8.79591,10.36771-14.34528,15.02448a31.47621,31.47621,0,0,1-4.65876,3.22552,17.7912,17.7912,0,0,1-2.865,1.26993,12.51717,12.51717,0,0,1-3.32475.62616,3.478,3.478,0,0,1-.57884-.0014l-.38918-.03086-.77841-.06665c-.50314-.05557-1.07291-.08136-1.5188-.17263l-2.69829-.54056c-1.70421-.44336-3.43673-.85181-5.07232-1.37338-6.62229-1.982-12.97786-4.36847-19.30877-6.82071q-9.47634-3.70734-18.75514-7.78879c-3.09486-1.364-6.17471-2.74875-9.23527-4.214-1.5239-.70783-3.07956-1.49329-4.62529-2.26318-.77585-.38581-1.48677-.78437-2.232-1.17554-.39685-.21994-.67635-.3396-1.16785-.64234l-1.17015-.71008a27.0733,27.0733,0,0,1-8.19185-7.54242,23.15422,23.15422,0,0,1-3.94781-10.54489,40.2471,40.2471,0,0,1-.25228-5.32034l.02976-4.97226q.0289-4.95561.05839-9.88751.05867-9.84591.11792-19.58518c-.07881-6.35583-.52356-12.96191-.04478-19.56976a53.0721,53.0721,0,0,1,4.70126-19.33,43.516,43.516,0,0,1,5.28064-8.44726,48.54144,48.54144,0,0,1,6.95169-6.92871A65.19973,65.19973,0,0,1,62.174,36.25412a120.25507,120.25507,0,0,1,17.48521-5.47089q2.17662-.5548,4.337-1.10491,2.17832-.47836,4.34042-.955c2.8837-.63251,5.74354-1.2898,8.61052-1.798a483.40028,483.40028,0,0,1,65.02931-7.75445q7.59319-.42225,14.87482-.61322c4.83618-.13916,9.63835-.1734,14.25372-.03821,9.24378.24579,17.996.72791,26.20941,1.35016,8.21424.59973,15.88706,1.38635,22.96689,2.21954,7.08322.82575,13.57712,1.70417,19.42413,2.63275,11.70112,1.783,20.808,3.84693,27.032,5.24073,6.124,1.55706,9.39,2.38672,9.39,2.38672l.03119.0083s.82205.242,2.412.70977c1.5993.43653,3.94183,1.20807,6.97406,2.29639a85.57385,85.57385,0,0,1,10.84534,4.94385,53.92939,53.92939,0,0,1,12.95379,9.89661A42.96356,42.96356,0,0,1,339.427,67.88333c2.12683,7.16663,2.55124,15.22779,2.32019,23.50659-.11,4.17286-.2792,8.2851-.19534,12.63208Zm-11.32553,58.82373c-.72989.51246-1.584,1.20014-2.63989,1.85584-1.04456.67633-2.2266,1.43774-3.53534,2.23932-2.63312,1.569-5.76911,3.29956-9.21573,4.9686-3.43476,1.69625-7.19492,3.29043-10.9704,4.83706-3.81284,1.45218-7.63452,2.87519-11.283,4.01554-3.632,1.18487-7.07074,2.13961-10.03235,2.89584-5.92242,1.52594-9.974,2.11978-9.974,2.11978s3.77231-1.5741,9.44135-3.77719c5.65313-2.20422,13.18988-5.144,20.72778-8.08328,1.87341-.74945,3.74793-1.49839,5.59244-2.23563,1.81817-.79657,3.66263-1.45706,5.39407-2.21643,1.726-.76959,3.44351-1.417,5.02466-2.12372,1.59338-.69281,3.09775-1.347,4.48724-1.95135,1.36945-.64408,2.64331-1.20841,3.77552-1.70621,1.13324-.49631,2.08743-.99124,2.89923-1.35922,1.6112-.75516,2.55206-1.16474,2.55206-1.16474s-.80164.62616-2.24365,1.68579ZM88.01178,183.65793c-2.96277-.75623-6.40035-1.711-10.03351-2.89584-3.64847-1.14035-7.47127-2.56336-11.28189-4.01554-3.7766-1.54663-7.53592-3.14081-10.97121-4.83706-3.44722-1.669-6.58319-3.3996-9.216-4.9686-1.30818-.80158-2.49023-1.563-3.5348-2.23932-1.05619-.6557-1.91056-1.34338-2.6402-1.85584-1.44141-1.05963-2.2439-1.68579-2.2439-1.68579s.9411.40958,2.55345,1.16474c.8107.368,1.76459.86291,2.89786,1.35922,1.13245.4978,2.40576,1.06213,3.77576,1.70621,1.38925.60434,2.89474,1.25854,4.487,1.95135,1.582.7067,3.29868,1.35413,5.0247,2.12372,1.73139.75937,3.57732,1.41986,5.39432,2.21643,1.84508.73724,3.71878,1.48618,5.59333,2.23563,7.53675,2.93927,15.07464,5.87906,20.72666,8.08328,5.67012,2.20309,9.44164,3.77719,9.44164,3.77719s-4.05187-.59384-9.97316-2.11978ZM89.92262,18.85709c2.79921-.71692,6.19173-1.64954,10.12961-2.49964,1.967-.43652,4.06177-.90057,6.2691-1.38952,2.22039-.42273,4.55584-.86658,6.99193-1.33,4.86879-.98846,10.19509-1.70734,15.81705-2.5918q4.23368-.52625,8.68506-1.07879c2.96277-.3946,5.99811-.71723,9.0927-.951q4.63932-.39505,9.42152-.80194c3.18445-.2713,6.41736-.36682,9.67351-.52411,3.257-.11682,6.53839-.353,9.83792-.37531q4.948-.04815,9.92267-.09668l4.96632-.011c1.65486.011,3.3066.10376,4.955.15106q4.94631.17733,9.84018.3501c1.62848.07055,3.253.08868,4.86453.20037q2.41553.20289,4.80475.40247,4.7758.39926,9.42349.7887,2.31945.19939,4.5975.3974,2.26758.29635,4.49121.58679,4.44114.59894,8.67627,1.17065c2.81257.4187,5.57068.66162,8.19638,1.194q3.945.74882,7.60819,1.44312c4.86963.95587,9.35492,1.692,13.26471,2.67932,3.90561.98816,7.30969,1.8501,10.11319,2.56024,5.58453,1.47321,8.77493,2.31421,8.77493,2.31421s-3.26013-.51819-8.96683-1.4259c-2.8403-.4798-6.29037-1.06263-10.2481-1.73133-1.96753-.38727-4.09522-.60382-6.32779-.88836q-3.34419-.43836-7.02054-.91791c-4.88953-.64826-10.17355-1.39856-15.8074-1.84308q-4.21587-.39505-8.648-.811-2.21147-.216-4.46824-.43763-2.26162-.1386-4.56692-.282-4.60908-.27228-9.358-.5528c-3.15924-.19671-6.357-.39227-9.58908-.43963q-4.84338-.13312-9.75-.26734c-1.63361-.0343-3.2692-.11279-4.9076-.11163l-4.92125.04614q-4.92038.009-9.83.01728c-3.26919-.00507-6.52112.20269-9.75006.29345-3.22583.14826-6.43464.17121-9.595.354q-4.74181.2871-9.35576.56756c-1.5358.101-3.06169.1695-4.568.29456q-2.25993.19509-4.47421.38721-4.43055.37078-8.65729.72308-4.20945.46426-8.176.90143-1.98312.20874-3.89736.40735-1.90913.24957-3.74116.48809c-2.4463.31867-4.79083.62336-7.02029.91364-2.2249.32959-4.3353.64148-6.31871.93481-3.96793.58875-7.41288,1.198-10.25632,1.673-2.83151.53546-5.07146.90429-6.58289,1.22711-1.51484.31348-2.32356.47992-2.32356.47992s3.126-1.06976,8.7086-2.58856Zm-72.9703,102.7c-.00084,2.13165-.09127,4.23013-.1301,6.26034-.106,4.0589-.26958,7.8483-.46631,11.09623-.362,6.495-.87448,10.82522-.87448,10.82522s-.51251-4.33023-.87422-10.82522c-.19728-3.24793-.36084-7.03733-.46686-11.09623-.03883-2.03021-.1284-4.12869-.12926-6.26034-.01672-2.13052-.034-4.29559-.05131-6.46069.01787-2.1651.03543-4.33112.0533-6.46186.006-2.13165.09155-4.2279.1304-6.25891.10913-4.05975.27154-7.84826.46828-11.09649.36084-6.4953.86967-10.82612.86967-10.82612s.50938,4.33082.86993,10.82612c.197,3.24823.35946,7.03674.46773,11.09649.03969,2.031.12529,4.12726.13126,6.25891.01758,2.13074.03541,4.29676.053,6.46186-.01729,2.1651-.03456,4.33017-.051,6.46069ZM359.62613,74.23728c0-6.72614-14.46634-45.30219-66.23944-60.02253C241.61246-.505,185.26962.00211,185.26962.00211S128.92764-.505,77.15341,14.21475C25.37915,28.93509,10.91367,67.51114,10.91367,74.23728c0,0-10.91367,1.26959-10.91367,4.06085V150.5025c0,7.36017,8.375,13.45182,19.79575,16.49683,11.42108,3.0455,15.736,4.06,15.736,4.06s5.07573,6.34591,29.44005,15.48172c24.36408,9.13717,34.4693,12.25616,35.53116,12.4367,1.04457.17661,21.57223,1.26853,31.46967,1.26853,9.89859,0,16.24337-7.36041,24.3652-19.79578,8.12042-12.4367,19.28836-26.14081,28.93182-26.14081,9.64431,0,20.81226,13.70411,28.93268,26.14081,8.12183,12.43537,14.46658,19.79578,24.36487,19.79578,9.89749,0,30.40216-1.13672,31.47-1.26853,1.10355-.13717,11.16708-3.29953,35.532-12.4367,24.36383-9.13581,29.4401-15.48172,29.4401-15.48172s4.31372-1.01453,15.73507-4.06c11.42-3.045,19.79578-9.13666,19.79578-16.49683V78.29813c0-2.79126-10.91394-4.06085-10.91394-4.06085Z" fill="#444d6a"/>
        <path d="M42.82726,61.03916c-4.809,7.0888-5.25176,11.67333-5.35381,14.33221-.1026,2.65894.58905,48.19492.56412,61.63458C38.012,150.44641,52.99426,151.33109,57.706,153.25638c3.49682,1.42783,5.38129-41.62024,6.04035-47.57129h1.52644c.90454,3.85059,5.256,14.40845,6.86354,24.69742,2.29918,14.7189-2.42958,28.94284-.63579,29.69321,6.27137,2.62429,22.90618,8.49511,25.34342,8.49511,4.22816,0-12.54332-65.68127-15.179-77.47339-4.02234-7.4259,17.36619-43.60083,20.08206-53.458,2.0313-7.18134-26.03453,1.85864-26.58443,4.28881-4.81779,10.91028-7.90356,25.97437-9.88983,43.67823H63.51109L62.46852,60.87833c-.27525-6.52954,6.02332-19.15137-.04167-16.17865-6.06416,2.97271-14.79118,9.25024-19.59959,16.33948Zm64.9253,110.85845c2.74875.79932,13.73044-10.37738,14.16358-12.8081,1.83883-10.31473-3.73891-24.2898-3.829-27.451l-.11792-4.10995c-.08023-2.81958,3.6992-3.63971,6.69345-3.63971a4.72808,4.72808,0,0,1,4.9317,3.4053,30.06758,30.06758,0,0,1,1.17412,8.68933c.546,15.57208,1.525,11.09705,7.05147,5.08334,1.87483-2.04007,15.80429-16.0866,13.58673-18.86911-11.84427-14.86261-16.45909-78.31585-14.09952-91.47967.4816-2.68524-8.7086-.7345-10.88135-.40057l-15.5778,2.395c-4.06488.62452-24.4596,132.97724-3.09542,139.18512Zm15.4318-100.50238L125.051,99.213l.23528,2.5835c.26646,2.93189-1.46777,3.28729-4.227,3.28729s-4.40391-1.52557-4.46229-1.99591c-.0587-.47021-.11737,1.05713,0-.58673.305-4.27435,2.1322-30.55035,6.58742-31.106ZM179.6,52.16672c.19162-2.22235.93969-2.75842,3.99174-2.81879l9.61089-.18854c1.99585-.03936,4.55041-1.20044,4.55041-8.12835V35.04233c0-2.58264,1.26654-8.40765-1.2543-9.163-4.1227-1.23419-42.12283.51142-48.98863,1.582-5.21916.81384-4.38434,9.504-4.38434,11.38281v4.34411c0,3.40552,5.23984,6.15967,10.75917,6.15967h3.28734c3.17,0,3.52235,1.2923,3.52235,1.87909,0,.58734.05866-2.935,0,.70435-.41244,25.66375-7.04327,39.72735-4.32171,65.94781.28006.87555,4.87077-2.14441,7.9197-2.793,8.20063-1.74475,20.18354-2.772,20.10021-3.04016C189.201,88.1304,177.50354,76.44913,179.6,52.16672Zm9.87307,53.73749a12.24275,12.24275,0,0,0-.1831,4.4934c0,1.46729.22476,2.44556,4.46229,3.40442l11.68471,2.64789c2.97751.67328,4.06485-1.972,3.88031-8.43188l-.11706-4.11005c-.08023-2.81934,3.69894-3.63971,6.69256-3.63971a4.72816,4.72816,0,0,1,4.93176,3.40558,12.68066,12.68066,0,0,1,.58735,4.22613c1.95019,31.2634-2.02793,15.97187,16.96392,39.93653,1.89579,2.39163,5.40143-1.23334,5.40143-4.46225,0-3.22867-3.57873-36.17893-6.1614-50.85611-.78406-4.45746-11.41257-61.77686-11.97669-63.362-.71262-2.00067-12.4285-2.35474-19.77844-2.0401-3.98721.171-3.53452,8.11157-4.41013,13.15021l-.47024,2.70062c-2.48972,14.32-5.45983,30.17731-6.69261,38.9837-1.1061,7.90125-3.17342,16.01123-4.81466,23.95362Zm25.01123-54.483.93882-.11737,3.7576,24.541.2344,2.58264c.26648,2.93268-1.46689,3.28821-4.22616,3.28821-2.76008,0-4.4039-1.52558-4.46228-1.99622-.05866-.47076-.11734,1.05622,0-.58734.11709-1.64349.24237-2.22943.46942-3.87469l3.2882-23.83619Zm54.50229,2.92133c-.21518-2.22.93885-2.81879,3.992-2.81879h3.87555c1.99588,0,4.1091-.82165,4.1091-7.74957V39.5502c0-5.93481-31.91077-8.46368-37.57465-8.46368-5.2832,0-5.519,4.46234-5.519,6.34112v5.28943c0,3.40558-.11737,8.80664,5.40195,8.80664h3.28738c11.34338,0,3.21674,96.02088.82739,103.90912-2.196,7.25354,10.82413,15.28809,15.06986,18.49521,1.21664.919,9.62277-3.77606,10.02472-8.46143,3.102-36.09548.1253-73.68435-3.49427-111.12411Zm34.194,41.61859c.19419-1.79455,12.18308-2.98633,12.97589-1.96692.82123,1.05676,1.87885,4.40357,1.87885,7.27991,0,2.8772-.09158,35.65387-.85464,36.94452-.76337,1.29062-12.12043,6.09646-14.17582,6.09646-8.25106,0-.674-40.51272.17572-48.354Zm1.70392,61.70685c6.34424-1.71893,19.76145-7.54245,24.04718-14.47028,4.28571-6.92761,3.2706-39.89227,3.2706-45.82147,0-5.93036,1.52646-17.97534-3.93332-21.73212a35.34762,35.34762,0,0,0-16.6326-5.38757h-1.40908c-2.58265,0-3.7576.23444-4.69672-.47021-.93884-.70472-1.17416-3.053-1.17416-5.5185V50.90012c0-8.57227,1.56024-5.66358-4.155-8.40607-5.38666-2.58411-14.98532-5.98138-14.98532.8725v7.16278c0,1.76092.0592,1.82019.23495,5.28412.17661,3.46393.23529,9.56976.35236,15.61725.11737,6.04657.35232,14.44305.35232,20.78332,0,24.22376-12.0271,60.49979-.2279,69.92981,3.66122,2.92538,9.88446-2.01907,18.95669-4.47589Z" fill="#fff"/>
      </g>
    </g>
  </g>
</svg>